<svg width="24" height="24" viewBox="0 0 24 24" fill="none" xmlns="http://www.w3.org/2000/svg">
<path fill-rule="evenodd" clip-rule="evenodd" d="M17.7402 11.2941L22.039 6.9967C22.632 6.40234 22.632 5.43952 22.039 4.84799L17.7402 0.549168C17.4549 0.264416 17.0683 0.104492 16.6652 0.104492C16.2621 0.104492 15.8754 0.264416 15.5901 0.549168L11.2927 4.84658L6.99528 0.549168C6.70996 0.264416 6.32333 0.104492 5.92023 0.104492C5.51712 0.104492 5.13049 0.264416 4.84517 0.549168L0.547755 4.84799C0.406203 4.98877 0.293847 5.15613 0.217136 5.34044C0.140424 5.52476 0.100868 5.72241 0.100737 5.92205C0.100606 6.12169 0.139902 6.3194 0.216371 6.50381C0.29284 6.68823 0.404976 6.85573 0.546343 6.9967L4.84376 11.2941L0.546343 15.5915C0.404933 15.7326 0.292767 15.9002 0.216279 16.0848C0.139791 16.2693 0.100486 16.4671 0.100617 16.6669C0.100748 16.8666 0.140313 17.0644 0.217044 17.2488C0.293774 17.4333 0.40616 17.6007 0.547755 17.7416L4.84517 22.0391C5.43811 22.6334 6.40093 22.6334 6.99528 22.0391L11.2927 17.7416L15.5901 22.0391C15.7312 22.1804 15.8988 22.2925 16.0832 22.369C16.2677 22.4455 16.4655 22.4849 16.6652 22.4849C16.8649 22.4849 17.0626 22.4455 17.2471 22.369C17.4316 22.2925 17.5991 22.1804 17.7402 22.0391L22.039 17.7416C22.632 17.1473 22.632 16.1845 22.039 15.5915L17.7402 11.2941Z" fill="#FF6584"/>
</svg>
