<svg width="250" height="239" viewBox="0 0 250 239" fill="none" xmlns="http://www.w3.org/2000/svg">
<g clip-path="url(#clip0)">
<path d="M136.175 226.025C199.039 226.025 250 220.331 250 213.308C250 206.284 199.039 200.59 136.175 200.59C73.3112 200.59 22.35 206.284 22.35 213.308C22.35 220.331 73.3112 226.025 136.175 226.025Z" fill="#3F3D56"/>
<path d="M192.626 199.235L194.589 205.283C194.589 205.283 204.043 215.051 200.624 217.698C197.204 220.346 189.532 206.39 189.532 206.39L188.118 199.561L192.626 199.235Z" fill="#FFB8B8"/>
<path d="M174.488 152.421L177.349 151.467C177.349 151.467 181.8 152.739 182.436 157.19C183.072 161.641 187.841 184.215 187.841 184.215C187.841 184.215 189.749 185.169 188.477 186.759C187.205 188.349 194.836 202.656 194.836 202.656L188.795 205.518C188.795 205.518 176.713 192.8 176.713 191.528C176.713 190.256 177.031 188.985 177.031 187.713C177.031 186.441 176.713 186.441 177.031 185.487C177.243 184.656 177.35 183.801 177.349 182.944L175.123 177.856L174.488 152.421Z" fill="#6C63FF"/>
<path d="M28.7481 174.231C44.6252 174.231 57.4961 147.969 57.4961 115.573C57.4961 83.1773 44.6252 56.9153 28.7481 56.9153C12.8709 56.9153 0 83.1773 0 115.573C0 147.969 12.8709 174.231 28.7481 174.231Z" fill="#6C63FF"/>
<path d="M28.4841 116.181C29.9181 90.6481 32.8075 73.4012 32.8365 73.23L32.2096 73.1238C32.1806 73.2952 29.2861 90.5697 27.8498 116.136C26.5243 139.732 26.2045 175.422 32.2095 211.452L32.8367 211.348C26.8419 175.379 27.161 139.743 28.4841 116.181Z" fill="#3F3D56"/>
<path d="M54.4422 103.677L28.4494 117.589L28.7495 118.15L54.7423 104.238L54.4422 103.677Z" fill="#3F3D56"/>
<path d="M1.30959 110.65L1.00965 111.211L27.0062 125.116L27.3061 124.555L1.30959 110.65Z" fill="#3F3D56"/>
<path d="M96.8356 160.537C118.562 160.537 136.175 124.599 136.175 80.2684C136.175 35.9374 118.562 0 96.8356 0C75.109 0 57.4961 35.9374 57.4961 80.2684C57.4961 124.599 75.109 160.537 96.8356 160.537Z" fill="#E6E6E6"/>
<path d="M96.3577 81.0907C98.3204 46.1447 102.275 22.5401 102.315 22.3057L101.688 22.1995C101.648 22.4341 97.6884 46.0663 95.7234 81.0452C93.9096 113.329 93.4722 162.159 101.688 211.452L102.315 211.348C94.1096 162.116 94.5465 113.34 96.3577 81.0907Z" fill="#3F3D56"/>
<path d="M132.051 64.0932L96.4821 83.1309L96.7822 83.6916L132.351 64.6539L132.051 64.0932Z" fill="#3F3D56"/>
<path d="M59.233 73.6349L58.933 74.1956L94.5073 93.2237L94.8072 92.6629L59.233 73.6349Z" fill="#3F3D56"/>
<path d="M64.0636 191.815C72.1812 191.815 78.7618 178.388 78.7618 161.825C78.7618 145.262 72.1812 131.835 64.0636 131.835C55.946 131.835 49.3653 145.262 49.3653 161.825C49.3653 178.388 55.946 191.815 64.0636 191.815Z" fill="#E6E6E6"/>
<path d="M64.0507 163.117L64.1377 163.28L77.4272 156.166L77.1272 155.606L64.0784 162.59C64.8005 149.299 66.2773 140.377 66.3071 140.202L65.6802 140.096C65.6477 140.287 63.893 150.882 63.2701 166.213L50.1092 159.169L49.8092 159.73L63.0987 166.843L63.2574 166.546C62.7591 179.2 63.0384 195.021 65.68 210.871L66.3072 210.767C63.4271 193.486 63.3636 176.237 64.0507 163.117Z" fill="#3F3D56"/>
<path d="M178.378 122.239C173.267 113.529 163.156 113.123 163.156 113.123C163.156 113.123 153.303 111.852 146.983 125.118C141.092 137.483 132.961 149.421 145.674 152.316L147.97 145.107L149.392 152.853C151.202 152.984 153.018 153.015 154.832 152.946C168.446 152.503 181.412 153.076 180.994 148.148C180.439 141.598 183.296 130.62 178.378 122.239Z" fill="#2F2E41"/>
<path d="M142.755 192.008C142.612 192.918 142.405 193.818 142.135 194.699C141.831 195.561 141.362 196.359 141.084 197.23C140.198 200.007 141.426 203.103 143.388 205.246C145.084 207.094 147.281 208.41 149.711 209.033C151.481 209.482 153.321 209.547 155.145 209.609C160.195 209.782 165.376 209.937 170.161 208.299C171.674 207.769 173.135 207.1 174.524 206.3C174.964 206.089 175.351 205.782 175.656 205.401C176.021 204.877 176.068 204.197 176.065 203.557C176.054 201.397 175.62 199.249 175.723 197.092C175.78 195.897 176.002 194.703 175.893 193.512C175.746 192.164 175.186 190.894 174.291 189.876C173.395 188.858 172.207 188.141 170.889 187.823C169.531 187.529 168.123 187.689 166.741 187.823C163.154 188.171 159.55 188.334 155.946 188.31C152.264 188.287 148.604 187.72 144.94 187.66C143.856 187.643 143.878 187.98 143.533 189.038C143.215 190.011 142.955 191.003 142.755 192.008Z" fill="#2F2E41"/>
<path d="M128.355 190.253C127.365 190.002 126.345 189.892 125.324 189.928C124.251 189.995 123.204 190.288 122.252 190.788C121.3 191.287 120.464 191.981 119.798 192.825C119.139 193.682 118.666 194.667 118.408 195.716C118.15 196.766 118.113 197.858 118.301 198.923C118.548 200.076 118.952 201.19 119.502 202.233C120.306 203.879 121.27 205.52 122.758 206.575C123.653 207.154 124.619 207.617 125.631 207.954L133.469 210.932C134.622 211.37 135.775 211.809 136.939 212.215C142.786 214.254 148.886 215.477 155.066 215.85C156.948 215.963 158.859 215.994 160.694 215.562C161.143 215.503 161.554 215.279 161.847 214.934C161.997 214.671 162.085 214.378 162.105 214.076L162.587 210.67C162.695 210.196 162.681 209.702 162.546 209.235C162.325 208.662 161.771 208.302 161.243 207.997C156.091 205.012 150.074 203.365 145.737 199.268C144.716 198.303 143.862 196.775 142.621 196.119C141.215 195.377 139.558 194.953 138.104 194.268C134.925 192.771 131.8 191.052 128.355 190.253Z" fill="#2F2E41"/>
<path opacity="0.1" d="M136.18 194.844C138.95 195.719 150.646 201.785 152.65 203.903C152.382 204.001 143.264 198.847 142.991 198.764C140.504 198.012 138.004 197.254 135.642 196.152C135.167 195.931 132.556 194.889 132.674 194.284C132.807 193.602 135.688 194.688 136.18 194.844Z" fill="black"/>
<path d="M170.74 217.616C170.897 217.627 171.053 217.581 171.179 217.485C171.234 217.414 171.275 217.332 171.298 217.244C171.322 217.157 171.328 217.066 171.316 216.976L171.303 212.336C169.981 211.701 168.501 211.497 167.049 211.301L160.273 210.388C160.429 210.409 159.214 213.331 159.4 213.721C159.728 214.409 162.238 215.019 162.946 215.343C165.408 216.472 167.967 217.713 170.74 217.616Z" fill="#FFB8B8"/>
<path d="M149.481 212.32C148.201 212.526 146.773 212.707 145.945 213.712C144.894 214.986 145.342 216.885 145.843 218.463C145.917 218.782 146.066 219.078 146.279 219.327C146.621 219.668 147.145 219.718 147.624 219.748C148.791 219.823 150.033 219.881 151.052 219.304C151.514 218.996 151.959 218.663 152.384 218.306C153.134 217.801 153.961 217.42 154.832 217.177C156.431 216.669 158.077 216.327 159.746 216.155C160.404 216.125 161.054 216.009 161.682 215.811C161.997 215.708 162.283 215.534 162.52 215.302C162.756 215.071 162.936 214.788 163.045 214.476C163.282 213.633 162.796 212.773 162.33 212.034C161.749 211.112 161.135 210.143 160.269 209.465C159.007 208.475 158.382 209.235 157.11 209.868C154.705 211.065 152.133 211.892 149.481 212.32Z" fill="#FFB8B8"/>
<path d="M146.137 213.483L138.014 211.061C137.04 210.719 136.022 210.52 134.991 210.47C133.961 210.471 132.883 210.811 132.215 211.602C131.585 212.348 131.405 213.367 131.248 214.334L130.912 216.402C130.688 217.445 130.624 218.516 130.724 219.578C130.877 220.632 131.411 221.684 132.337 222.194C133.462 222.813 134.839 222.511 136.094 222.252C138.627 221.73 141.205 221.451 143.792 221.419C144.764 221.408 145.784 221.42 146.643 220.961C147.665 220.415 148.276 219.26 148.381 218.099C148.54 216.333 147.957 214.025 146.137 213.483Z" fill="#2F2E41"/>
<path d="M173.933 211.372C174.986 211.186 175.915 210.582 176.924 210.226C178.345 209.724 179.884 209.724 181.389 209.73C181.941 209.732 182.529 209.745 182.989 210.053C183.652 210.498 183.822 211.389 183.935 212.184L184.615 216.982C184.743 217.884 184.87 218.81 184.67 219.699C184.471 220.588 183.87 221.445 182.995 221.675C181.933 221.953 180.892 221.269 179.889 220.819C177.382 219.696 174.468 219.983 171.854 219.143C171.369 218.987 170.85 218.749 170.652 218.276C170.562 218.009 170.531 217.726 170.558 217.447C170.603 215.905 170.281 213.799 170.741 212.325C171.155 211 172.757 211.372 173.933 211.372Z" fill="#2F2E41"/>
<path d="M191.124 188.322C192.746 187.911 194.429 187.795 196.093 187.979C197.421 188.127 198.79 188.5 199.76 189.427C200.941 190.556 201.32 192.302 201.352 193.942C201.405 197.206 200.331 200.387 198.312 202.951C197.82 203.597 197.234 204.166 196.574 204.639C195.863 205.087 195.105 205.456 194.313 205.738L176.761 212.721C172.144 214.558 167.51 216.4 162.694 217.611C162.562 217.675 162.418 217.712 162.272 217.719C162.126 217.727 161.979 217.704 161.842 217.654C161.704 217.604 161.578 217.526 161.471 217.426C161.364 217.326 161.278 217.206 161.218 217.072C159.68 214.854 158.389 212.474 157.372 209.974C157.326 209.894 157.297 209.805 157.289 209.713C157.28 209.622 157.292 209.529 157.322 209.442C157.386 209.346 157.476 209.269 157.581 209.22L169.996 202.025C170.907 201.546 171.755 200.956 172.522 200.269C173.06 199.744 173.499 199.127 173.82 198.447C174.077 197.905 174.101 196.626 174.43 196.225C174.752 195.833 175.852 195.801 176.361 195.647C177.078 195.425 177.78 195.158 178.463 194.845C181.24 193.592 183.713 191.772 186.375 190.304C187.867 189.444 189.463 188.778 191.124 188.322Z" fill="#2F2E41"/>
<path opacity="0.1" d="M184.086 193.695C181.953 195.311 179.191 196.796 177.077 198.454C176.356 199.02 164.329 205.84 164.159 206.746C166.131 207.081 178.694 198.217 180.491 197.332C182.289 196.447 183.882 195.2 185.461 193.962C185.863 193.646 187.569 192.698 186.414 192.345C185.763 192.147 184.566 193.372 184.086 193.695Z" fill="black"/>
<path d="M162.724 144.154C169.396 144.154 174.806 138.745 174.806 132.072C174.806 125.399 169.396 119.99 162.724 119.99C156.051 119.99 150.642 125.399 150.642 132.072C150.642 138.745 156.051 144.154 162.724 144.154Z" fill="#FFB8B8"/>
<path d="M167.811 142.246C167.811 142.246 165.903 147.016 169.4 148.923C172.898 150.831 158.59 166.092 158.59 166.092L152.231 147.651C152.231 147.651 157.636 145.744 156.683 140.657L167.811 142.246Z" fill="#FFB8B8"/>
<path d="M159.862 155.282L167.562 146.782L177.985 152.103L176.395 189.62L173.852 192.482C173.852 192.482 163.042 202.02 146.508 194.072C146.508 194.072 140.785 189.303 141.103 181.99C141.421 174.677 140.467 173.723 140.467 173.723L140.149 147.969L155.847 144.889L159.862 155.282Z" fill="#6C63FF"/>
<path d="M124.555 195.738L122.592 201.786C122.592 201.786 113.137 211.553 116.557 214.201C119.976 216.848 127.648 202.892 127.648 202.892L129.062 196.064L124.555 195.738Z" fill="#FFB8B8"/>
<path d="M142.693 148.923L139.831 147.969C139.831 147.969 135.38 149.241 134.744 153.692C134.108 158.144 129.339 180.718 129.339 180.718C129.339 180.718 127.431 181.672 128.703 183.262C129.975 184.851 122.344 199.159 122.344 199.159L128.385 202.02C128.385 202.02 140.467 189.303 140.467 188.031C140.467 186.759 140.149 185.487 140.149 184.215C140.149 182.944 140.467 182.944 140.149 181.99C139.937 181.159 139.83 180.304 139.831 179.446L142.057 174.359L142.693 148.923Z" fill="#6C63FF"/>
<path d="M176.119 121.399L166.129 116.122L152.334 118.281L149.48 130.996L156.585 130.72L158.57 126.049V130.643L161.848 130.516L163.751 123.079L164.94 130.996L176.594 130.756L176.119 121.399Z" fill="#2F2E41"/>
<path d="M105.306 203.194V221.533H49.2896C49.2899 216.669 51.2221 212.005 54.6613 208.565C58.1005 205.126 62.765 203.194 67.6288 203.194C72.8813 201.556 78.9541 201.035 85.5419 201.206C91.7578 201.365 98.4315 202.144 105.306 203.194Z" fill="#FF6584"/>
<path d="M97.3035 217.532H123.645C124.087 217.532 124.511 217.708 124.823 218.02C125.136 218.333 125.312 218.757 125.312 219.199C125.312 219.642 125.136 220.066 124.823 220.378C124.511 220.691 124.087 220.867 123.645 220.867H97.3035V217.532Z" fill="#3F3D56"/>
<path d="M101.866 187.499L108.926 178.941C109.089 178.601 109.351 178.319 109.678 178.132C110.005 177.946 110.381 177.863 110.756 177.895C111.131 177.927 111.487 178.073 111.777 178.312C112.068 178.552 112.278 178.874 112.381 179.237L115.165 189.067L101.866 187.499Z" fill="#3F3D56"/>
<path d="M93.3024 191.858L95.9698 181.088C95.9698 180.712 96.0844 180.344 96.2984 180.035C96.5124 179.725 96.8156 179.488 97.1677 179.355C97.5198 179.222 97.9041 179.199 98.2694 179.29C98.6347 179.38 98.9638 179.58 99.2129 179.862L105.973 187.523L93.3024 191.858Z" fill="#FF6584"/>
<path d="M49.2894 221.533H54.6243V232.87C54.6243 233.571 54.4863 234.264 54.2182 234.912C53.9501 235.559 53.5571 236.147 53.0617 236.642C52.5663 237.138 51.9782 237.531 51.331 237.799C50.6837 238.067 49.99 238.205 49.2894 238.205V221.533Z" fill="#FF6584"/>
<path d="M96.3032 218.199H122.644C123.086 218.199 123.511 218.375 123.823 218.687C124.136 219 124.311 219.424 124.311 219.866C124.311 220.308 124.136 220.732 123.823 221.045C123.511 221.358 123.086 221.533 122.644 221.533H96.3032V218.199Z" fill="#FF6584"/>
<path opacity="0.2" d="M105.306 203.194V221.431C102.599 221.719 99.8632 221.389 97.3026 220.467C94.742 219.546 92.4236 218.056 90.5216 216.109C88.6196 214.163 87.1834 211.811 86.3209 209.229C85.4584 206.648 85.1921 203.905 85.5419 201.206C91.7578 201.365 98.4315 202.144 105.306 203.194Z" fill="black"/>
<path d="M105.306 221.533C115.25 221.533 123.311 213.472 123.311 203.528C123.311 193.584 115.25 185.523 105.306 185.523C95.3618 185.523 87.3006 193.584 87.3006 203.528C87.3006 213.472 95.3618 221.533 105.306 221.533Z" fill="#FF6584"/>
<path d="M122.644 209.53C123.749 209.53 124.645 207.44 124.645 204.862C124.645 202.284 123.749 200.194 122.644 200.194C121.539 200.194 120.644 202.284 120.644 204.862C120.644 207.44 121.539 209.53 122.644 209.53Z" fill="#3F3D56"/>
<path d="M117.81 201.194C118.086 201.194 118.31 200.672 118.31 200.027C118.31 199.383 118.086 198.86 117.81 198.86C117.533 198.86 117.309 199.383 117.309 200.027C117.309 200.672 117.533 201.194 117.81 201.194Z" fill="#3F3D56"/>
<path d="M121.477 198.86C121.754 198.86 121.977 198.338 121.977 197.693C121.977 197.048 121.754 196.526 121.477 196.526C121.201 196.526 120.977 197.048 120.977 197.693C120.977 198.338 121.201 198.86 121.477 198.86Z" fill="#3F3D56"/>
<path d="M103.795 185.322C103.795 185.322 102.795 183.582 102.795 182.52L103.795 185.322Z" fill="#3F3D56"/>
<path d="M104.236 184.196C104.236 184.196 104.781 182.264 105.54 181.522L104.236 184.196Z" fill="#3F3D56"/>
</g>
<defs>
<clipPath id="clip0">
<rect width="250" height="238.205" fill="white"/>
</clipPath>
</defs>
</svg>
